<?xml version="1.0" encoding="UTF-8"?>
<!DOCTYPE svg PUBLIC "-//W3C//DTD SVG 1.1//EN" "http://www.w3.org/Graphics/SVG/1.1/DTD/svg11.dtd">
<!-- Creator: CorelDRAW -->
<svg xmlns="http://www.w3.org/2000/svg" xml:space="preserve" width="40.0561mm" height="26.0813mm" version="1.1" style="shape-rendering:geometricPrecision; text-rendering:geometricPrecision; image-rendering:optimizeQuality; fill-rule:evenodd; clip-rule:evenodd"
viewBox="0 0 872.59 568.16"
 xmlns:xlink="http://www.w3.org/1999/xlink"
 xmlns:xodm="http://www.corel.com/coreldraw/odm/2003">
 <defs>
  <style type="text/css">
   <![CDATA[
    .fil0 {fill:black}
   ]]>
  </style>
 </defs>
 <g id="Capa_x0020_1">
  <metadata id="CorelCorpID_0Corel-Layer"/>
  <path class="fil0" d="M616.64 69.66c16.21,0 125.91,-1.14 136.02,1.01 33.09,7.05 46.25,52.49 25.53,77.99 -5.15,6.34 -1.75,2.41 -6.97,7.06 -11.69,10.43 -23.54,10.52 -44.79,10.52 -36.87,0 -73.74,0 -110.62,0 -1.69,3.52 -2.86,7.25 -4.67,11.02 -7.04,14.67 -21.49,37.03 -34.13,46.77 -3.99,3.08 -14.41,12.76 -19.81,13.21l0 120.52 66.86 0 0 -121.34 74.29 0c2.63,0 6.8,7.42 8.49,9.67 15.51,20.74 30.91,43.75 45.99,63.8l30.87 42.6c4.56,6.75 3.24,5.31 13.7,5.28 24.76,-0.07 49.53,-0 74.3,-0l-39.97 -56.61c-2.17,-3 -3.68,-5.19 -5.9,-8.13l-45.76 -64.86c6.64,-1.55 23.91,-12.42 28.68,-16.72 2.27,-2.04 3.65,-2.8 5.8,-4.93l7.1 -6.93c0.72,-0.78 0.79,-0.93 1.56,-1.74 1.12,-1.18 1.79,-1.69 2.85,-2.93 8.13,-9.57 16.55,-23.64 20.98,-35.97 18.52,-51.57 2.18,-115.71 -45.14,-144.11 -30.44,-18.27 -49.08,-14.49 -84.56,-14.49 -49.53,0 -99.06,0 -148.59,0 1.8,2.69 5.02,4.07 7.62,6.41 17.77,15.97 27.13,28.24 36.61,51.71 1.42,3.52 2.3,8.43 3.64,11.22z"/>
  <path class="fil0" d="M2.47 357.76l83.37 0c0.79,-2.96 36.25,-52.36 41.28,-59.43 4.4,-6.19 40.27,-55.7 41.27,-59.44 2.14,1.57 8.6,11.22 10.57,14.2 1.83,2.76 3.35,4.78 5.11,7.27 11.41,16.08 67.69,94.3 68.52,97.4l83.37 0c-1.26,-4.72 -49.01,-69.62 -58.46,-83.53 -1.47,-2.16 -2.4,-3.72 -3.95,-5.96l-15.87 -22.1c-2.68,-3.95 -4.95,-7.33 -7.81,-11.18l-39.4 -55.53c1.13,-1.68 2.53,-3.35 3.9,-5.18 1.61,-2.15 2.45,-3.63 4.02,-5.89 2.75,-3.98 5.31,-7.1 7.94,-11.05 5.2,-7.8 10.51,-14.49 15.68,-22.3l23.44 -33.52c14.82,-22.4 34.53,-49.56 50.68,-72.31l19.81 -28.89 -84.2 0 -22.96 33.17c-1.34,1.98 -2.27,3.49 -3.61,5.47l-31.22 44.73c-1.41,1.98 -2.73,3.68 -4.13,5.78 -2.6,3.92 -5.04,7.12 -7.76,11.23l-93.54 134.29c-2.87,3.84 -5.14,7.22 -7.82,11.17l-62.58 89.31c-4.97,7.55 -10.66,14.78 -15.68,22.29z"/>
  <path class="fil0" d="M311.21 69.66l170.88 0c14.31,0 20.1,-0.08 29.73,4.94 33.75,17.58 34.61,71.4 -1.06,87.3 -5.79,2.58 -11.49,4.34 -19.59,4.34l-99.88 0 0 70.17 105.66 0c16.42,0 30.65,-5 44.31,-11.82 3.08,-1.54 6.07,-3.26 8.87,-5.17 1.86,-1.27 2.2,-1.71 3.79,-2.82 44.88,-31.48 60.21,-96.75 40.33,-146 -3.69,-9.15 -8.61,-18.31 -14.07,-26.38l-12.41 -14.83 -15.15 -12.09c-2.96,-2.15 -5.47,-3.81 -8.6,-5.43 -10.55,-5.49 -27.09,-11.55 -42.94,-11.55l-138.68 0c-2.37,0 -2.94,1.82 -4,3.44 -1.25,1.9 -1.74,2.49 -3.09,4.34 -6.06,8.34 -40.13,57.8 -44.1,61.56z"/>
  <path class="fil0" d="M303.78 271.91l57.78 85.85 10.73 0c0,-81.03 -1.65,-162.37 -1.65,-243.52l-66.86 0 0 157.67z"/>
  <path class="fil0" d="M114.74 161.29c2.34,-1.72 6.12,-8.39 8.01,-10.97l34.09 -49.29 -65.88 -94.26c-1.56,-2.3 -2.83,-4.28 -4.28,-6.45l-86.68 0c0.6,2.27 1.8,3.29 3.18,5.07 1.35,1.76 2.25,3.05 3.42,4.83l100.55 141.32c1.6,2.35 5.77,8.4 7.59,9.74z"/>
  <path class="fil0" d="M152.96 526.91c-15.85,0 -25.53,-10.84 -25.53,-26.69 0,-10.87 -0.25,-15.63 6.35,-25.11 9.74,-14 44.71,-11.58 44.71,21.06 0,16.36 -9.57,30.74 -25.53,30.74zm-25.53 -60.66l0 -11.32 -15.16 0 0 113.23 15.16 0 0 -40.44c3.68,2.5 5.06,5.42 9.59,8.07 21.83,12.79 56.62,-3.59 56.62,-35.57 0,-14 -0.96,-25.11 -11.35,-35.41 -11.23,-11.13 -28.91,-15.34 -43.72,-7.47 -5.9,3.14 -6.76,5.93 -11.15,8.91z"/>
  <path class="fil0" d="M643.6 527.72c-8.37,0 -21.54,-0.43 -21.54,-12.94 0,-19.58 30.14,-15.72 43.88,-14.56 0,9.96 0.95,15.34 -4.56,20.45 -3.6,3.34 -11.13,7.05 -17.78,7.05zm-33.51 -64.71c2.48,3.75 4.24,7.22 6.38,11.32 10.36,-5.56 35.36,-13.02 45.71,-1.05 3.3,3.81 3.75,8.67 3.75,15.61 -3.45,-1.68 -59.83,-9.38 -59.83,26.69 0,15.15 12.74,24.26 27.92,24.26 7.88,0 15.18,0.29 22.02,-3.56 7.93,-4.47 6.5,-5.72 10.69,-8.57l0 10.52 15.16 0 0 -52.57c0,-39.63 -49.96,-37.47 -71.8,-22.65z"/>
  <path class="fil0" d="M317.31 489.71c0,-12.49 11.1,-22.65 20.74,-22.65l5.59 0c12.02,0 19.15,12.57 19.15,25.07l-45.47 0 0 -2.43zm-16.75 4.85c0,13.67 2.69,24.15 10.55,32.17 12.88,13.13 19.1,13.13 36.51,13.13 9.46,0 21.77,-7.25 25.53,-12.94 -2.5,-4.79 -5.46,-6.19 -6.38,-9.71 -5.24,1.42 -7.07,9.71 -25.53,9.71 -12.77,0 -23.93,-11.44 -23.93,-24.27l60.63 0c0,-18.56 0.01,-36.33 -20.2,-45.84 -12.3,-5.79 -28.36,-4.32 -39.5,3.12 -1.5,1 -4.72,3.3 -5.91,4.52 -7.37,7.52 -11.78,19.1 -11.78,30.12z"/>
  <path class="fil0" d="M857.41 492.13l-45.47 0c0,-32.9 45.47,-35.32 45.47,0zm-62.23 1.62c0,26.7 15.56,46.1 39.09,46.1 12.5,0 26.37,-2.13 33.51,-12.94 -1.41,-2.7 -4.81,-7.29 -7.18,-8.9 -3.54,1.9 -4.77,3.78 -8.64,5.8 -16.35,8.53 -40.03,-0.7 -40.03,-21.17l60.63 0c0,-8.79 0.32,-13.58 -1.42,-20.4 -2.71,-10.6 -8.81,-20.37 -18.51,-24.91 -28.47,-13.31 -57.45,7.86 -57.45,36.41z"/>
  <path class="fil0" d="M34.09 496.18l-29.52 42.06 18.35 0c0.74,-3.22 3.07,-5.45 4.79,-8.08 1.78,-2.72 3.23,-4.82 5.25,-7.62 1.94,-2.71 9.27,-13.41 9.91,-15.83 2.4,1.63 3.93,4.75 5.58,7.28 5,7.62 11.8,16.31 15.96,24.27l17.55 0c-1.35,-5.11 -25.66,-35.48 -29.52,-42.87 2.05,-3.11 27.07,-37.22 27.92,-40.44l-18.35 0 -9.25 14.88c-2.22,3.36 -8.33,11.71 -9.1,15.04 -1.91,-1.42 -18.5,-27.46 -19.15,-29.93l-20.74 0 30.32 41.25z"/>
  <path class="fil0" d="M505.58 475.96c0,30.9 47.87,20.89 47.87,41.25 0,12.92 -22.38,11.9 -33.53,7.31 -6.68,-2.75 -9.02,-6.18 -12.74,-6.5 -0.73,2.77 -4.75,8.04 -6.38,10.51 4.79,2.57 8.31,5.59 14.04,7.6 13.69,4.81 32.22,6.22 44.86,-2.07 13.24,-8.68 16.09,-32.11 -10.54,-41.63 -8.16,-2.92 -27.63,-7.73 -27.63,-15.67 0,-14.43 24.02,-12.66 39.09,-2.43 1.08,-4.11 5.44,-8.57 6.38,-12.13 -13.31,-9.04 -37.34,-13.08 -52.53,-3.1 -4.85,3.19 -8.91,8.92 -8.91,16.85z"/>
  <path class="fil0" d="M412.24 476.76c0,12.65 10.22,19.54 19.85,22.75 8.4,2.8 27.22,7.74 27.22,16.08 0,15.96 -25.3,14.38 -38.46,5.84 -2.08,-1.35 -2.92,-2.73 -5.41,-3.41 -1.85,1.38 -6.55,8.58 -7.18,11.32 7.31,1.98 7.66,10.51 39.09,10.51 12.2,0 27.13,-10.27 27.13,-20.22l0 -6.47c0,-19.35 -30.5,-21.77 -42.78,-30.24 -10.27,-7.08 1.06,-27.49 34.8,-9.4 1.13,-4.9 4.39,-6.93 5.59,-12.13 -4.24,-1 -8.29,-4.15 -13.45,-5.78 -16.85,-5.32 -46.39,-2.96 -46.39,21.14z"/>
  <path class="fil0" d="M730.56 434.71l0 20.22 -12.77 0 0 12.94 12.77 0 0 50.96c0,12.03 7.86,21.03 21.54,21.03 13.46,0 10.55,-1.9 16.75,-2.42 0,-5.79 -0.8,-8.94 -0.8,-13.75 -10.25,5.5 -21.54,2.94 -21.54,-12.13l0 -43.68 21.54 0 0 -12.94 -21.54 0 0 -25.07c-21.36,0 -15.96,-0.76 -15.96,4.85z"/>
  <path class="fil0" d="M243.91 466.25c0.73,-1.8 0,-8.3 0,-11.32l-15.16 0 0 83.31 15.95 0c-1.9,-4.02 -1.33,-47.99 1.05,-54.75 5.16,-14.7 20.38,-17.52 29.27,-13.19l0 -16.17c-4.74,0 -11.76,-3.07 -21.41,3.36 -3.63,2.42 -4.48,3.92 -6.93,6.72 -1.65,1.89 -0.12,1.33 -2.77,2.05z"/>
 </g>
</svg>
