<?xml version="1.0" encoding="UTF-8"?>
<svg xmlns="http://www.w3.org/2000/svg" viewBox="0 0 489 321" role="img" aria-label="Xpressate logo">
  <g fill="currentColor">
    <path d="M309.00,0.00 L323.00,17.00 L329.00,31.00 L396.00,32.00 L402.00,35.00 L408.00,42.00 L411.00,49.00 L411.00,59.00 L409.00,65.00 L401.00,74.00 L390.00,78.00 L329.00,78.00 L319.00,96.00 L308.00,107.00 L301.00,111.00 L301.00,164.00 L332.00,164.00 L333.00,109.00 L372.00,109.00 L413.00,164.00 L450.00,164.00 L408.00,107.00 L409.00,104.00 L418.00,100.00 L429.00,91.00 L435.00,83.00 L441.00,68.00 L441.00,40.00 L431.00,19.00 L419.00,8.00 L395.00,0.00 Z"/>
<path d="M193.00,0.00 L155.00,0.00 L97.00,81.00 L43.00,153.00 L36.00,165.00 L74.00,164.00 L114.00,111.00 L116.00,111.00 L155.00,164.00 L193.00,164.00 L191.00,159.00 L135.00,83.00 L136.00,79.00 L192.00,4.00 Z"/>
<path d="M187.00,29.00 L187.00,31.00 L272.00,31.00 L282.00,36.00 L289.00,46.00 L290.00,49.00 L289.00,63.00 L287.00,67.00 L280.00,74.00 L274.00,77.00 L269.00,78.00 L223.00,78.00 L223.00,94.00 L222.00,95.00 L223.00,109.00 L271.00,109.00 L283.00,107.00 L297.00,101.00 L305.00,95.00 L311.00,88.00 L317.00,78.00 L321.00,64.00 L321.00,44.00 L318.00,33.00 L311.00,20.00 L301.00,10.00 L288.00,3.00 L275.00,0.00 L208.00,0.00 Z"/>
<path d="M180.00,53.00 L180.00,126.00 L183.00,129.00 L183.00,130.00 L185.00,132.00 L185.00,133.00 L191.00,140.00 L191.00,141.00 L193.00,143.00 L193.00,144.00 L196.00,147.00 L196.00,148.00 L198.00,150.00 L198.00,151.00 L201.00,154.00 L201.00,155.00 L204.00,158.00 L204.00,159.00 L207.00,162.00 L207.00,163.00 L208.00,164.00 L211.00,164.00 L211.00,53.00 Z"/>
<path d="M37.00,0.00 L37.00,3.00 L40.00,6.00 L40.00,7.00 L43.00,10.00 L43.00,11.00 L49.00,18.00 L49.00,19.00 L51.00,21.00 L51.00,22.00 L54.00,25.00 L54.00,26.00 L57.00,29.00 L57.00,30.00 L60.00,33.00 L60.00,34.00 L63.00,37.00 L63.00,38.00 L66.00,41.00 L66.00,42.00 L72.00,49.00 L72.00,50.00 L74.00,52.00 L74.00,53.00 L77.00,56.00 L77.00,57.00 L80.00,60.00 L80.00,61.00 L83.00,64.00 L83.00,65.00 L86.00,68.00 L86.00,69.00 L88.00,71.00 L90.00,71.00 L91.00,70.00 L91.00,69.00 L94.00,66.00 L94.00,65.00 L97.00,62.00 L97.00,61.00 L100.00,58.00 L100.00,57.00 L103.00,54.00 L103.00,53.00 L106.00,50.00 L106.00,49.00 L108.00,47.00 L108.00,45.00 L106.00,43.00 L106.00,42.00 L103.00,39.00 L103.00,38.00 L100.00,35.00 L100.00,34.00 L97.00,31.00 L97.00,30.00 L94.00,27.00 L94.00,26.00 L91.00,23.00 L91.00,22.00 L88.00,19.00 L88.00,18.00 L86.00,16.00 L86.00,15.00 L83.00,12.00 L83.00,11.00 L77.00,4.00 L77.00,3.00 L75.00,1.00 L75.00,0.00 Z"/>
<path d="M100.00,258.00 L99.00,258.00 L96.00,256.00 L93.00,256.00 L92.00,255.00 L84.00,255.00 L83.00,256.00 L80.00,256.00 L79.00,257.00 L78.00,257.00 L76.00,259.00 L75.00,259.00 L73.00,261.00 L73.00,262.00 L72.00,263.00 L70.00,263.00 L69.00,262.00 L69.00,256.00 L62.00,256.00 L62.00,319.00 L63.00,320.00 L69.00,320.00 L70.00,319.00 L70.00,299.00 L71.00,298.00 L73.00,298.00 L77.00,302.00 L78.00,302.00 L79.00,303.00 L81.00,303.00 L82.00,304.00 L85.00,304.00 L86.00,305.00 L90.00,305.00 L91.00,304.00 L95.00,304.00 L96.00,303.00 L97.00,303.00 L98.00,302.00 L101.00,301.00 L107.00,295.00 L107.00,294.00 L110.00,289.00 L110.00,286.00 L111.00,285.00 L111.00,274.00 L110.00,273.00 L110.00,271.00 L109.00,270.00 L109.00,269.00 L108.00,268.00 L107.00,265.00 L105.00,263.00 L105.00,262.00 Z"/>
<path d="M344.00,258.00 L343.00,259.00 L343.00,262.00 L344.00,263.00 L344.00,265.00 L346.00,265.00 L349.00,263.00 L352.00,263.00 L353.00,262.00 L362.00,262.00 L363.00,263.00 L365.00,263.00 L366.00,264.00 L367.00,264.00 L371.00,268.00 L371.00,269.00 L372.00,270.00 L372.00,272.00 L373.00,273.00 L373.00,275.00 L372.00,276.00 L368.00,276.00 L367.00,275.00 L350.00,275.00 L349.00,276.00 L347.00,276.00 L346.00,277.00 L345.00,277.00 L343.00,279.00 L342.00,279.00 L340.00,281.00 L340.00,282.00 L338.00,285.00 L338.00,288.00 L337.00,289.00 L337.00,291.00 L338.00,292.00 L338.00,295.00 L339.00,296.00 L339.00,297.00 L341.00,299.00 L341.00,300.00 L342.00,301.00 L343.00,301.00 L345.00,303.00 L346.00,303.00 L347.00,304.00 L350.00,304.00 L351.00,305.00 L359.00,305.00 L360.00,304.00 L363.00,304.00 L364.00,303.00 L367.00,302.00 L369.00,300.00 L372.00,300.00 L373.00,301.00 L373.00,304.00 L380.00,304.00 L380.00,270.00 L379.00,269.00 L379.00,267.00 L378.00,266.00 L377.00,263.00 L372.00,258.00 L371.00,258.00 L370.00,257.00 L368.00,257.00 L367.00,256.00 L362.00,256.00 L361.00,255.00 L355.00,255.00 L354.00,256.00 L350.00,256.00 L349.00,257.00 L346.00,257.00 L345.00,258.00 Z"/>
<path d="M191.00,255.00 L190.00,256.00 L187.00,256.00 L186.00,257.00 L184.00,257.00 L182.00,259.00 L181.00,259.00 L175.00,265.00 L175.00,266.00 L172.00,271.00 L172.00,274.00 L171.00,275.00 L171.00,285.00 L172.00,286.00 L172.00,289.00 L173.00,290.00 L173.00,291.00 L174.00,292.00 L175.00,295.00 L181.00,301.00 L182.00,301.00 L187.00,304.00 L191.00,304.00 L192.00,305.00 L199.00,305.00 L200.00,304.00 L203.00,304.00 L204.00,303.00 L206.00,303.00 L208.00,301.00 L209.00,301.00 L213.00,297.00 L213.00,295.00 L211.00,293.00 L208.00,293.00 L205.00,296.00 L204.00,296.00 L201.00,298.00 L198.00,298.00 L197.00,299.00 L194.00,299.00 L193.00,298.00 L190.00,298.00 L189.00,297.00 L186.00,296.00 L181.00,291.00 L181.00,290.00 L179.00,287.00 L179.00,284.00 L180.00,283.00 L217.00,283.00 L217.00,275.00 L216.00,274.00 L216.00,271.00 L215.00,270.00 L215.00,269.00 L214.00,268.00 L213.00,265.00 L209.00,260.00 L208.00,260.00 L206.00,258.00 L205.00,258.00 L202.00,256.00 L199.00,256.00 L198.00,255.00 Z"/>
<path d="M462.00,255.00 L461.00,256.00 L458.00,256.00 L457.00,257.00 L456.00,257.00 L455.00,258.00 L452.00,259.00 L447.00,264.00 L447.00,265.00 L445.00,267.00 L445.00,269.00 L444.00,270.00 L444.00,272.00 L443.00,273.00 L443.00,277.00 L442.00,278.00 L442.00,283.00 L443.00,284.00 L443.00,288.00 L444.00,289.00 L444.00,290.00 L445.00,291.00 L446.00,294.00 L450.00,299.00 L451.00,299.00 L456.00,303.00 L458.00,303.00 L459.00,304.00 L462.00,304.00 L463.00,305.00 L470.00,305.00 L471.00,304.00 L474.00,304.00 L475.00,303.00 L477.00,303.00 L478.00,302.00 L479.00,302.00 L481.00,300.00 L482.00,300.00 L485.00,297.00 L485.00,295.00 L483.00,293.00 L480.00,293.00 L478.00,295.00 L477.00,295.00 L475.00,297.00 L474.00,297.00 L473.00,298.00 L470.00,298.00 L469.00,299.00 L465.00,299.00 L464.00,298.00 L461.00,298.00 L460.00,297.00 L459.00,297.00 L457.00,295.00 L456.00,295.00 L453.00,292.00 L453.00,291.00 L450.00,286.00 L450.00,284.00 L451.00,283.00 L488.00,283.00 L488.00,275.00 L487.00,274.00 L487.00,271.00 L486.00,270.00 L486.00,268.00 L485.00,267.00 L485.00,266.00 L483.00,264.00 L483.00,263.00 L479.00,259.00 L478.00,259.00 L473.00,256.00 L470.00,256.00 L469.00,255.00 Z"/>
<path d="M1.00,256.00 L1.00,259.00 L4.00,262.00 L4.00,263.00 L10.00,270.00 L10.00,271.00 L12.00,273.00 L12.00,274.00 L16.00,278.00 L16.00,281.00 L12.00,285.00 L12.00,286.00 L9.00,289.00 L9.00,290.00 L6.00,293.00 L6.00,294.00 L0.00,301.00 L0.00,304.00 L7.00,304.00 L8.00,303.00 L8.00,302.00 L10.00,300.00 L10.00,299.00 L13.00,296.00 L13.00,295.00 L15.00,293.00 L15.00,292.00 L18.00,289.00 L18.00,288.00 L20.00,286.00 L23.00,286.00 L24.00,287.00 L24.00,288.00 L27.00,291.00 L27.00,292.00 L29.00,294.00 L29.00,295.00 L32.00,298.00 L32.00,299.00 L36.00,304.00 L43.00,304.00 L43.00,301.00 L40.00,298.00 L40.00,297.00 L37.00,294.00 L37.00,293.00 L35.00,291.00 L35.00,290.00 L32.00,287.00 L32.00,286.00 L29.00,283.00 L29.00,282.00 L27.00,280.00 L27.00,277.00 L30.00,274.00 L30.00,273.00 L33.00,270.00 L33.00,269.00 L36.00,266.00 L36.00,265.00 L40.00,261.00 L40.00,260.00 L42.00,258.00 L42.00,256.00 L35.00,256.00 L33.00,258.00 L33.00,259.00 L30.00,262.00 L30.00,263.00 L27.00,266.00 L27.00,267.00 L24.00,270.00 L24.00,271.00 L22.00,273.00 L20.00,273.00 L19.00,272.00 L19.00,271.00 L17.00,269.00 L17.00,268.00 L15.00,266.00 L15.00,265.00 L12.00,262.00 L12.00,261.00 L8.00,256.00 Z"/>
<path d="M243.00,256.00 L242.00,257.00 L241.00,257.00 L239.00,259.00 L238.00,259.00 L235.00,264.00 L235.00,266.00 L234.00,267.00 L234.00,270.00 L235.00,271.00 L235.00,273.00 L236.00,274.00 L236.00,275.00 L240.00,279.00 L241.00,279.00 L244.00,281.00 L246.00,281.00 L247.00,282.00 L249.00,282.00 L250.00,283.00 L252.00,283.00 L253.00,284.00 L255.00,284.00 L256.00,285.00 L259.00,286.00 L261.00,288.00 L261.00,289.00 L262.00,290.00 L262.00,294.00 L258.00,298.00 L257.00,298.00 L256.00,299.00 L249.00,299.00 L248.00,298.00 L245.00,298.00 L244.00,297.00 L239.00,295.00 L237.00,293.00 L235.00,293.00 L233.00,296.00 L233.00,299.00 L234.00,299.00 L241.00,303.00 L243.00,303.00 L244.00,304.00 L248.00,304.00 L249.00,305.00 L256.00,305.00 L257.00,304.00 L260.00,304.00 L261.00,303.00 L264.00,302.00 L268.00,298.00 L268.00,297.00 L269.00,296.00 L269.00,286.00 L268.00,285.00 L268.00,284.00 L265.00,281.00 L264.00,281.00 L262.00,279.00 L260.00,279.00 L257.00,277.00 L254.00,277.00 L253.00,276.00 L251.00,276.00 L250.00,275.00 L248.00,275.00 L247.00,274.00 L246.00,274.00 L242.00,270.00 L242.00,266.00 L243.00,265.00 L243.00,264.00 L246.00,262.00 L256.00,262.00 L257.00,263.00 L259.00,263.00 L262.00,265.00 L266.00,265.00 L266.00,264.00 L267.00,263.00 L267.00,260.00 L262.00,257.00 L260.00,257.00 L259.00,256.00 L255.00,256.00 L254.00,255.00 L248.00,255.00 L247.00,256.00 Z"/>
<path d="M296.00,256.00 L295.00,257.00 L292.00,258.00 L289.00,261.00 L289.00,262.00 L288.00,263.00 L288.00,265.00 L287.00,266.00 L287.00,271.00 L288.00,272.00 L288.00,274.00 L289.00,275.00 L289.00,276.00 L294.00,280.00 L296.00,280.00 L299.00,282.00 L301.00,282.00 L302.00,283.00 L305.00,283.00 L306.00,284.00 L308.00,284.00 L309.00,285.00 L310.00,285.00 L314.00,289.00 L314.00,290.00 L315.00,291.00 L315.00,293.00 L314.00,294.00 L314.00,295.00 L311.00,298.00 L309.00,298.00 L308.00,299.00 L302.00,299.00 L301.00,298.00 L298.00,298.00 L297.00,297.00 L295.00,297.00 L294.00,296.00 L293.00,296.00 L291.00,294.00 L287.00,294.00 L286.00,295.00 L286.00,299.00 L293.00,303.00 L295.00,303.00 L296.00,304.00 L300.00,304.00 L301.00,305.00 L309.00,305.00 L310.00,304.00 L313.00,304.00 L314.00,303.00 L315.00,303.00 L317.00,301.00 L318.00,301.00 L319.00,300.00 L319.00,299.00 L321.00,297.00 L321.00,295.00 L322.00,294.00 L322.00,288.00 L321.00,287.00 L321.00,285.00 L316.00,280.00 L315.00,280.00 L312.00,278.00 L310.00,278.00 L309.00,277.00 L307.00,277.00 L306.00,276.00 L304.00,276.00 L303.00,275.00 L301.00,275.00 L300.00,274.00 L297.00,273.00 L295.00,271.00 L295.00,270.00 L294.00,269.00 L294.00,267.00 L295.00,266.00 L295.00,265.00 L298.00,262.00 L308.00,262.00 L309.00,263.00 L311.00,263.00 L316.00,266.00 L318.00,266.00 L318.00,265.00 L320.00,262.00 L320.00,260.00 L319.00,260.00 L314.00,257.00 L312.00,257.00 L311.00,256.00 L306.00,256.00 L305.00,255.00 L301.00,255.00 L300.00,256.00 Z"/>
<path d="M405.00,242.00 L405.00,255.00 L404.00,256.00 L398.00,256.00 L398.00,262.00 L401.00,262.00 L402.00,263.00 L404.00,263.00 L405.00,264.00 L405.00,294.00 L406.00,295.00 L406.00,298.00 L407.00,299.00 L407.00,300.00 L409.00,302.00 L410.00,302.00 L413.00,304.00 L423.00,304.00 L424.00,303.00 L426.00,303.00 L426.00,297.00 L423.00,297.00 L422.00,298.00 L418.00,298.00 L417.00,297.00 L416.00,297.00 L413.00,294.00 L413.00,264.00 L414.00,263.00 L416.00,263.00 L417.00,262.00 L427.00,262.00 L427.00,256.00 L413.00,256.00 L412.00,255.00 L412.00,242.00 Z"/>
<path d="M157.00,255.00 L154.00,255.00 L153.00,256.00 L151.00,256.00 L150.00,257.00 L149.00,257.00 L148.00,258.00 L147.00,258.00 L143.00,262.00 L143.00,263.00 L142.00,264.00 L140.00,264.00 L139.00,263.00 L139.00,256.00 L132.00,256.00 L132.00,304.00 L139.00,304.00 L139.00,280.00 L140.00,279.00 L140.00,276.00 L141.00,275.00 L141.00,274.00 L142.00,273.00 L142.00,272.00 L148.00,266.00 L149.00,266.00 L150.00,265.00 L151.00,265.00 L152.00,264.00 L156.00,264.00 L157.00,263.00 Z"/>
  </g>
</svg>
