<?xml version="1.0" encoding="UTF-8"?>
<!DOCTYPE svg PUBLIC "-//W3C//DTD SVG 1.1//EN" "http://www.w3.org/Graphics/SVG/1.1/DTD/svg11.dtd">
<!-- Creator: CorelDRAW -->
<svg xmlns="http://www.w3.org/2000/svg" xml:space="preserve" width="101.6mm" height="35.56mm" version="1.1" style="shape-rendering:geometricPrecision; text-rendering:geometricPrecision; image-rendering:optimizeQuality; fill-rule:evenodd; clip-rule:evenodd"
viewBox="0 0 10566.26 3698.2"
 xmlns:xlink="http://www.w3.org/1999/xlink"
 xmlns:xodm="http://www.corel.com/coreldraw/odm/2003">
 <defs>
  <style type="text/css">
   <![CDATA[
    .str0 {stroke:black;stroke-width:10.4;stroke-miterlimit:22.9256}
    .fil0 {fill:none}
    .fil1 {fill:whitesmoke}
    .fil2 {fill:#FD5202}
    .fil3 {fill:black;fill-rule:nonzero}
   ]]>
  </style>
 </defs>
 <g id="Capa_x0020_1">
  <metadata id="CorelCorpID_0Corel-Layer"/>
  <rect class="fil0" x="-0" y="-0.01" width="10566.27" height="3698.2"/>
  <g id="_1993021641296">
   <circle class="fil1" cx="2003.57" cy="1854.69" r="1529.33"/>
   <path class="fil2" d="M1884.31 3034.6c19.02,-55.11 -28.6,-85.73 -57.04,-118.31 -177.77,-203.6 -250.07,-453 -158.8,-717.38 26.45,-76.58 98.43,-205.54 154.7,-237.78 0.77,136.22 -4.16,218.91 49,329.49 91.93,191.21 253.33,251.46 335.51,432.22 79.44,174.73 -29.62,283.73 15.74,318.85 70.42,43.12 325.4,-193.82 364.26,-240.94 225.48,-273.39 329.92,-580.16 215.14,-943.35 -33.34,-105.5 -164.4,-365.07 -248.56,-380.28 -70.39,29.77 -50.93,113.89 -79.98,194.72 -25.33,70.47 -61.41,130.14 -96.26,188.14 -94.34,156.96 -129.62,216.01 -109.65,431.47 -81.89,-26.51 -149.37,-136.02 -149.88,-250.14 -0.61,-137.02 41.91,-207.99 91.08,-312.46 83.29,-176.96 163.42,-441.18 79.8,-659.82 -125.28,-327.57 -489.3,-534.17 -510.86,-420.87 -9.46,49.73 152.45,207.55 18.21,487.76 -164.47,343.33 -582.62,511.07 -612.64,998.83 -15.48,251.65 78.35,468.69 200.62,599.73 64.18,68.77 125.15,128.33 219.59,186.46 52.45,32.28 211.48,143.18 280.01,113.68z"/>
  </g>
  <path class="fil3 str0" d="M4105.05 2396.86l0 -1057.69 241.29 0 0 1057.69 -241.29 0zm477.29 0l0 -1048.84 241.3 0 0 870.09 597.36 0 0 178.75 -838.66 0zm1009.77 0l0 -1057.69 881.92 0 0 178.73 -640.64 0 0 209.78 595.69 0 0 178.75 -595.69 0 0 311.67 663.93 0 0 178.75 -905.21 0zm1414.69 0l-426.27 -1057.69 260.69 0 302.56 782.92 290.38 -782.92 256.27 0 -423.77 1057.69 -259.86 0zm805.11 0l0 -1057.69 881.92 0 0 178.73 -640.64 0 0 209.78 595.69 0 0 178.75 -595.69 0 0 311.67 663.93 0 0 178.75 -905.21 0zm1109.91 0l0 -1057.69 233.51 0 490.3 708.81 0 -708.81 222.98 0 0 1057.69 -241.01 0 -482.84 -695.28 0 695.28 -222.95 0z"/>
 </g>
</svg>
